<?xml version="1.0" encoding="UTF-8"?>
<svg width="51px" height="51px" viewBox="0 0 51 51" version="1.1" xmlns="http://www.w3.org/2000/svg" xmlns:xlink="http://www.w3.org/1999/xlink">
    <!-- Generator: Sketch 43 (38999) - http://www.bohemiancoding.com/sketch -->
    <title>Group 10</title>
    <desc>Created with Sketch.</desc>
    <defs></defs>
    <g id="First-website" stroke="none" stroke-width="1" fill="none" fill-rule="evenodd">
        <g id="Desktop" transform="translate(-618.000000, -616.000000)">
            <g id="Group-13" transform="translate(618.000000, 616.000000)">
                <g id="Group-10">
                    <circle id="Oval" fill="#FFFFFF" cx="25.5" cy="25.5" r="25.5"></circle>
                    <path d="M31.6711337,34.8029754 L21.6623412,34.8029754 C21.6652624,34.7328081 21.6667374,34.6622673 21.6667374,34.5913819 C21.6667374,31.8299582 19.4281612,29.5913819 16.6667374,29.5913819 C13.9053137,29.5913819 11.6667374,31.8299582 11.6667374,34.5913819 C11.6667374,34.6622673 11.6682125,34.7328081 11.6711337,34.8029754 L8,34.8029754 L8,14 L33.6341349,14 L40.6246434,25.0150837 L45.4587203,25.0150837 L45.4587203,34.8029754 L41.6623412,34.8029754 C41.6652624,34.7328081 41.6667374,34.6622673 41.6667374,34.5913819 C41.6667374,31.8299582 39.4281612,29.5913819 36.6667374,29.5913819 C33.9053137,29.5913819 31.6667374,31.8299582 31.6667374,34.5913819 C31.6667374,34.6622673 31.6682125,34.7328081 31.6711337,34.8029754 Z M29.0231989,17.5813399 L29.0231989,23.5551293 L36.0770345,23.5551293 L32.5501167,17.5813399 L29.0231989,17.5813399 Z M16.6667374,38.5913819 C14.4575984,38.5913819 12.6667374,36.8005209 12.6667374,34.5913819 C12.6667374,32.3822429 14.4575984,30.5913819 16.6667374,30.5913819 C18.8758764,30.5913819 20.6667374,32.3822429 20.6667374,34.5913819 C20.6667374,36.8005209 18.8758764,38.5913819 16.6667374,38.5913819 Z M36.6667374,38.5913819 C34.4575984,38.5913819 32.6667374,36.8005209 32.6667374,34.5913819 C32.6667374,32.3822429 34.4575984,30.5913819 36.6667374,30.5913819 C38.8758764,30.5913819 40.6667374,32.3822429 40.6667374,34.5913819 C40.6667374,36.8005209 38.8758764,38.5913819 36.6667374,38.5913819 Z" id="Combined-Shape" fill="#6B6B6B"></path>
                </g>
            </g>
        </g>
    </g>
</svg>