<?xml version="1.0" encoding="UTF-8"?>
<svg width="51px" height="51px" viewBox="0 0 51 51" version="1.1" xmlns="http://www.w3.org/2000/svg" xmlns:xlink="http://www.w3.org/1999/xlink">
    <!-- Generator: Sketch 43 (38999) - http://www.bohemiancoding.com/sketch -->
    <title>Group 11</title>
    <desc>Created with Sketch.</desc>
    <defs></defs>
    <g id="First-website" stroke="none" stroke-width="1" fill="none" fill-rule="evenodd">
        <g id="Desktop" transform="translate(-894.000000, -616.000000)">
            <g id="Group-12" transform="translate(894.000000, 616.000000)">
                <g id="Group-11">
                    <circle id="Oval" fill="#FFFFFF" cx="25.5" cy="25.5" r="25.5"></circle>
                    <path d="M27.3618046,27.1697314 L34.0582325,30.5817318 L33.2517095,32.1646223 L25.17817,28.0509484 L24.6363636,28.0509484 L24.6363636,18.2727273 L27.3433102,18.2727273 L27.3618046,27.1697314 Z M26,41 C17.7157288,41 11,34.2842712 11,26 C11,17.7157288 17.7157288,11 26,11 C34.2842712,11 41,17.7157288 41,26 C41,34.2842712 34.2842712,41 26,41 Z M26,37.3636364 C32.2759631,37.3636364 37.3636364,32.2759631 37.3636364,26 C37.3636364,19.7240369 32.2759631,14.6363636 26,14.6363636 C19.7240369,14.6363636 14.6363636,19.7240369 14.6363636,26 C14.6363636,32.2759631 19.7240369,37.3636364 26,37.3636364 Z" id="Combined-Shape" fill="#3ABAFD"></path>
                </g>
            </g>
        </g>
    </g>
</svg>