<?xml version="1.0" encoding="UTF-8"?>
<svg width="51px" height="51px" viewBox="0 0 51 51" version="1.1" xmlns="http://www.w3.org/2000/svg" xmlns:xlink="http://www.w3.org/1999/xlink">
    <!-- Generator: Sketch 43 (38999) - http://www.bohemiancoding.com/sketch -->
    <title>Group 8</title>
    <desc>Created with Sketch.</desc>
    <defs></defs>
    <g id="First-website" stroke="none" stroke-width="1" fill="none" fill-rule="evenodd">
        <g id="Desktop" transform="translate(-338.000000, -616.000000)">
            <g id="Group-9" transform="translate(338.000000, 616.000000)">
                <g id="Group-8">
                    <circle id="Oval" fill="#FFFFFF" cx="25.5" cy="25.5" r="25.5"></circle>
                    <path d="M14,24 C11.790861,24 10,22.209139 10,20 C10,17.790861 11.790861,16 14,16 C16.209139,16 18,17.790861 18,20 C18,22.209139 16.209139,24 14,24 Z M26,24 C23.790861,24 22,22.209139 22,20 C22,17.790861 23.790861,16 26,16 C28.209139,16 30,17.790861 30,20 C30,22.209139 28.209139,24 26,24 Z M38,24 C35.790861,24 34,22.209139 34,20 C34,17.790861 35.790861,16 38,16 C40.209139,16 42,17.790861 42,20 C42,22.209139 40.209139,24 38,24 Z M38,37 C35.790861,37 34,35.209139 34,33 C34,30.790861 35.790861,29 38,29 C40.209139,29 42,30.790861 42,33 C42,35.209139 40.209139,37 38,37 Z M26,37 C23.790861,37 22,35.209139 22,33 C22,30.790861 23.790861,29 26,29 C28.209139,29 30,30.790861 30,33 C30,35.209139 28.209139,37 26,37 Z M14,37 C11.790861,37 10,35.209139 10,33 C10,30.790861 11.790861,29 14,29 C16.209139,29 18,30.790861 18,33 C18,35.209139 16.209139,37 14,37 Z" id="Combined-Shape" fill="#B227A7"></path>
                </g>
            </g>
        </g>
    </g>
</svg>