<?xml version="1.0" encoding="utf-8"?>
<!-- Generator: Adobe Illustrator 15.0.2, SVG Export Plug-In . SVG Version: 6.00 Build 0)  -->
<!DOCTYPE svg PUBLIC "-//W3C//DTD SVG 1.1//EN" "http://www.w3.org/Graphics/SVG/1.1/DTD/svg11.dtd">
<svg version="1.1" id="Layer_1_xA0_Image_1_" xmlns="http://www.w3.org/2000/svg" xmlns:xlink="http://www.w3.org/1999/xlink"
	 x="0px" y="0px" width="238.11px" height="57.827px" viewBox="22.666 10.093 238.11 57.827"
	 enable-background="new 22.666 10.093 238.11 57.827" xml:space="preserve">
<g>
	<path fill="#1866B0" d="M67.528,29.858h2.378v4.018h0.082c1.189-2.87,4.141-4.633,7.544-4.633c6.438,0,9.512,5.207,9.512,11.193
		c0,5.984-3.075,11.191-9.512,11.191c-3.157,0-6.232-1.598-7.339-4.633h-0.082v11.85h-2.583V29.858z M77.532,31.416
		c-5.699,0-7.421,4.224-7.421,9.021c0,4.387,1.927,9.02,7.421,9.02c4.92,0,6.929-4.633,6.929-9.02S82.452,31.416,77.532,31.416z"/>
	<path fill="#1866B0" d="M89.75,29.858h2.378v4.96h0.082c1.312-3.402,4.182-5.412,7.995-5.248v2.583
		c-4.674-0.246-7.872,3.199-7.872,7.585v11.273H89.75V29.858z"/>
	<path fill="#1866B0" d="M101.393,21.74h2.583v4.141h-2.583V21.74z M101.393,29.858h2.583v21.155h-2.583V29.858z"/>
	<path fill="#1866B0" d="M107.584,29.858h2.583v3.649h0.082c0.943-2.542,3.772-4.264,6.765-4.264c5.945,0,7.749,3.116,7.749,8.158
		v13.611h-2.583V37.813c0-3.65-1.189-6.397-5.371-6.397c-4.1,0-6.56,3.116-6.642,7.257v12.34h-2.583V29.858z"/>
	<path fill="#1866B0" d="M131.528,29.858h4.305v2.173h-4.305v14.267c0,1.682,0.246,2.666,2.091,2.789
		c0.738,0,1.476-0.041,2.214-0.123v2.213c-0.779,0-1.517,0.082-2.296,0.082c-3.444,0-4.633-1.146-4.592-4.756V32.031h-3.69v-2.173
		h3.69v-6.355h2.583V29.858z"/>
	<path fill="#1866B0" d="M150.837,37.813c-0.082-0.861-0.368-1.559-0.901-2.01c-0.492-0.451-1.189-0.697-2.05-0.697
		c-3.116,0-3.567,2.707-3.567,5.289c0,2.584,0.451,5.248,3.567,5.248c1.763,0,2.992-1.436,3.156-3.115h7.751
		c-0.779,5.779-5.331,9.018-11.071,9.018c-6.396,0-11.521-4.428-11.521-11.15c0-6.725,5.125-11.193,11.521-11.193
		c5.576,0,10.333,2.747,10.825,8.611H150.837z"/>
	<path fill="#1866B0" d="M159.776,21.74h8.119v29.273h-8.119V21.74z"/>
	<path fill="#1866B0" d="M192.125,51.013h-7.832v-2.705h-0.082c-1.518,2.131-3.689,3.238-6.93,3.238
		c-3.812,0-7.297-2.336-7.297-7.215V29.735h8.117v11.153c0,2.461,0.287,4.182,2.666,4.182c1.395,0,3.238-0.697,3.238-4.1V29.735
		h8.119V51.013z"/>
	<path fill="#1866B0" d="M194.01,21.74h8.117v10.332h0.082c1.23-1.804,3.404-2.87,5.822-2.87c7.135,0,9.061,6.068,9.061,11.07
		c0,5.33-2.91,11.273-8.938,11.273c-3.977,0-5.207-1.516-6.232-2.869h-0.082v2.336h-7.83V21.74z M205.409,35.106
		c-2.912,0-3.568,2.748-3.568,5.248c0,2.543,0.656,5.289,3.568,5.289c2.91,0,3.566-2.746,3.566-5.289
		C208.975,37.854,208.319,35.106,205.409,35.106z"/>
	<path fill="#1866B0" d="M221.276,41.872c-0.164,4.549,2.543,7.584,7.176,7.584c3.771,0,7.338-2.256,7.338-6.354
		c0-4.061-3.074-6.068-6.887-6.068h-2.174v-2.175h2.174c2.664,0.041,5.82-1.598,5.82-5.207c0-3.772-2.828-5.412-6.271-5.412
		c-4.307,0-6.602,2.993-6.52,7.257h-2.584c0.041-5.412,3.486-9.43,9.062-9.43c4.51,0,8.896,2.214,8.896,7.298
		c0,3.116-1.764,5.616-4.838,6.355v0.082c3.73,0.615,5.904,3.32,5.904,7.094c0,5.615-4.592,8.73-9.881,8.73
		c-5.945,0-10.209-3.607-9.801-9.756H221.276z"/>
	<path fill="#1866B0" d="M260.512,36.829c0,6.725-1.641,14.799-10.004,14.799s-10.004-8.074-10.004-14.758
		c0-6.725,1.641-14.802,10.004-14.802S260.512,30.145,260.512,36.829z M243.086,36.829c0,5.002,0.861,12.627,7.422,12.627
		s7.422-7.625,7.422-12.627c0-4.962-0.861-12.588-7.422-12.588S243.086,31.867,243.086,36.829z"/>
</g>
<g>
	<path d="M80.011,65.638h-1.533l-0.731-3.797h-0.018l-0.722,3.797h-1.533l-1.443-5.711h1.533l0.775,3.697h0.018l0.66-3.697h1.443
		l0.677,3.686h0.018l0.757-3.686h1.542L80.011,65.638z"/>
	<path d="M81.961,57.782h1.515v2.926h0.018c0.232-0.582,0.855-0.945,1.408-0.945c1.542,0,1.667,1.385,1.667,2.211v3.664h-1.515
		v-2.762c0-0.781,0.071-1.574-0.757-1.574c-0.57,0-0.82,0.594-0.82,1.223v3.113h-1.515V57.782z"/>
	<path d="M90.096,66.144c-0.365,1.254-0.909,1.408-1.934,1.408H87.45v-1.52h0.526c0.347,0,0.605-0.242,0.605-0.637
		c0-0.309-0.294-1.189-0.383-1.496l-1.194-3.973h1.604l0.874,3.719h0.018l0.874-3.719h1.55L90.096,66.144z"/>
	<path d="M95.166,59.927h1.444v0.66h0.018c0.294-0.539,0.74-0.824,1.274-0.824c1.453,0,2.067,1.539,2.067,3.146
		c0,1.484-0.642,2.893-1.952,2.893c-0.57,0-1.007-0.264-1.319-0.781h-0.018v2.531h-1.515V59.927z M96.627,62.722
		c0,1.002,0.232,1.65,0.918,1.65c0.677,0,0.909-0.869,0.909-1.65c0-0.727-0.232-1.529-0.9-1.529
		C97.144,61.192,96.627,61.544,96.627,62.722z"/>
	<path d="M100.717,61.687c0.026-0.748,0.312-1.23,0.722-1.529c0.41-0.285,0.944-0.395,1.47-0.395c1.096,0,2.157,0.297,2.157,1.914
		v2.496c0,0.484,0,1.014,0.178,1.465h-1.523c-0.054-0.176-0.071-0.354-0.089-0.539c-0.392,0.506-0.971,0.703-1.524,0.703
		c-0.882,0-1.577-0.551-1.577-1.727c0-1.859,1.64-1.717,2.691-1.98c0.258-0.066,0.401-0.176,0.401-0.529
		c0-0.428-0.419-0.594-0.731-0.594c-0.418,0-0.686,0.232-0.757,0.715H100.717z M102.677,64.647c0.722,0,0.963-0.506,0.927-1.684
		c-0.214,0.164-0.605,0.197-0.936,0.309c-0.338,0.098-0.624,0.273-0.624,0.725C102.044,64.46,102.338,64.647,102.677,64.647z"/>
	<path d="M108.584,66.144c-0.365,1.254-0.909,1.408-1.934,1.408h-0.713v-1.52h0.526c0.347,0,0.605-0.242,0.605-0.637
		c0-0.309-0.294-1.189-0.383-1.496l-1.194-3.973h1.604l0.874,3.719h0.018l0.874-3.719h1.55L108.584,66.144z"/>
	<path d="M113.654,59.927h1.47v0.781h0.018c0.276-0.572,0.766-0.945,1.328-0.945c0.579,0,1.096,0.23,1.346,0.924
		c0.365-0.605,0.82-0.924,1.443-0.924c1.471,0,1.631,1.375,1.631,2.463v3.412h-1.515v-3.355c0-0.617-0.241-0.98-0.633-0.98
		c-0.65,0-0.713,0.617-0.713,1.541v2.795h-1.515v-3.246c0-0.672-0.161-1.09-0.57-1.09c-0.544,0-0.775,0.385-0.775,1.553v2.783
		h-1.515V59.927z"/>
	<path d="M124.114,59.763c1.435,0,2.442,1.309,2.442,3.025c0,1.715-1.007,3.014-2.442,3.014s-2.433-1.299-2.433-3.014
		C121.682,61.071,122.68,59.763,124.114,59.763z M124.114,64.372c0.704,0,0.927-0.859,0.927-1.584c0-0.727-0.223-1.596-0.927-1.596
		s-0.918,0.869-0.918,1.596C123.196,63.513,123.41,64.372,124.114,64.372z"/>
	<path d="M127.402,59.927h1.47v1.002h0.018c0.223-0.727,0.74-1.111,1.391-1.111c0.116,0,0.24,0.012,0.356,0.043v1.705
		c-0.196-0.064-0.375-0.109-0.58-0.109c-0.749,0-1.141,0.639-1.141,1.354v2.828h-1.515V59.927z"/>
	<path d="M132.277,63.239c0.026,0.781,0.392,1.297,1.033,1.297c0.366,0,0.722-0.209,0.865-0.627h1.417
		c-0.276,1.32-1.265,1.893-2.299,1.893c-1.506,0-2.531-1.121-2.531-3.037c0-1.748,1.132-3.002,2.495-3.002
		c1.658,0,2.486,1.539,2.415,3.477H132.277z M134.157,62.194c-0.026-0.639-0.392-1.168-0.9-1.168c-0.535,0-0.891,0.475-0.98,1.168
		H134.157z"/>
	<path d="M139.565,61.138h-0.731v-1.211h0.731c0-1.639,0.463-2.145,1.755-2.145c0.241,0,0.49,0.021,0.73,0.033v1.32
		c-0.143-0.023-0.276-0.033-0.41-0.033c-0.348,0-0.562,0.055-0.562,0.572v0.252h0.909v1.211h-0.909v4.5h-1.515V61.138z"/>
	<path d="M144.743,59.763c1.435,0,2.441,1.309,2.441,3.025c0,1.715-1.007,3.014-2.441,3.014s-2.433-1.299-2.433-3.014
		C142.31,61.071,143.308,59.763,144.743,59.763z M144.743,64.372c0.704,0,0.927-0.859,0.927-1.584c0-0.727-0.223-1.596-0.927-1.596
		s-0.918,0.869-0.918,1.596C143.825,63.513,144.039,64.372,144.743,64.372z"/>
	<path d="M148.03,59.927h1.471v1.002h0.018c0.223-0.727,0.739-1.111,1.391-1.111c0.115,0,0.24,0.012,0.356,0.043v1.705
		c-0.196-0.064-0.375-0.109-0.58-0.109c-0.748,0-1.141,0.639-1.141,1.354v2.828h-1.515V59.927z"/>
	<path d="M157.102,66.144c-0.365,1.254-0.911,1.408-1.935,1.408h-0.713v-1.52h0.525c0.348,0,0.605-0.242,0.605-0.637
		c0-0.309-0.295-1.189-0.383-1.496l-1.195-3.973h1.605l0.873,3.719h0.018l0.874-3.719h1.551L157.102,66.144z"/>
	<path d="M161.575,59.763c1.434,0,2.441,1.309,2.441,3.025c0,1.715-1.008,3.014-2.441,3.014c-1.436,0-2.434-1.299-2.434-3.014
		C159.141,61.071,160.139,59.763,161.575,59.763z M161.575,64.372c0.703,0,0.926-0.859,0.926-1.584c0-0.727-0.223-1.596-0.926-1.596
		c-0.705,0-0.918,0.869-0.918,1.596C160.657,63.513,160.87,64.372,161.575,64.372z"/>
	<path d="M169.407,65.638h-1.471v-0.781h-0.018c-0.285,0.582-0.875,0.945-1.408,0.945c-1.328,0-1.711-0.945-1.711-2.441v-3.434
		h1.514v3.312c0,0.758,0.268,1.023,0.75,1.023c0.328,0,0.828-0.266,0.828-1.277v-3.059h1.516V65.638z"/>
	<path d="M170.475,59.927h1.469v1.002h0.02c0.223-0.727,0.738-1.111,1.389-1.111c0.117,0,0.242,0.012,0.357,0.043v1.705
		c-0.197-0.064-0.375-0.109-0.58-0.109c-0.748,0-1.141,0.639-1.141,1.354v2.828h-1.514V59.927z"/>
	<path d="M177.024,59.927h1.443v0.66h0.018c0.295-0.539,0.74-0.824,1.273-0.824c1.453,0,2.068,1.539,2.068,3.146
		c0,1.484-0.643,2.893-1.951,2.893c-0.57,0-1.008-0.264-1.318-0.781h-0.02v2.531h-1.514V59.927z M178.485,62.722
		c0,1.002,0.232,1.65,0.918,1.65c0.678,0,0.908-0.869,0.908-1.65c0-0.727-0.23-1.529-0.898-1.529
		C179.002,61.192,178.485,61.544,178.485,62.722z"/>
	<path d="M182.69,59.927h1.471v1.002h0.018c0.223-0.727,0.74-1.111,1.391-1.111c0.115,0,0.24,0.012,0.355,0.043v1.705
		c-0.195-0.064-0.373-0.109-0.578-0.109c-0.748,0-1.141,0.639-1.141,1.354v2.828h-1.516V59.927z"/>
	<path d="M188,59.212h-1.514v-1.43H188V59.212z M186.487,59.927H188v5.711h-1.514V59.927z"/>
	<path d="M189.071,59.927h1.471v0.781h0.018c0.275-0.582,0.9-0.945,1.451-0.945c1.543,0,1.668,1.385,1.668,2.211v3.664h-1.516
		v-2.762c0-0.781,0.07-1.574-0.758-1.574c-0.57,0-0.82,0.594-0.82,1.223v3.113h-1.514V59.927z"/>
	<path d="M197.473,61.138h-0.936v2.596c0,0.451,0.213,0.551,0.543,0.551c0.125,0,0.258-0.021,0.393-0.021v1.375
		c-0.277,0.01-0.553,0.055-0.828,0.055c-1.293,0-1.623-0.463-1.623-2.014v-2.541h-0.766v-1.211h0.766V58.2h1.516v1.727h0.936V61.138
		z"/>
	<path d="M199.717,59.212h-1.514v-1.43h1.514V59.212z M198.204,59.927h1.514v5.711h-1.514V59.927z"/>
	<path d="M200.788,59.927h1.471v0.781h0.018c0.275-0.582,0.9-0.945,1.451-0.945c1.543,0,1.668,1.385,1.668,2.211v3.664h-1.516
		v-2.762c0-0.781,0.07-1.574-0.758-1.574c-0.57,0-0.82,0.594-0.82,1.223v3.113h-1.514V59.927z"/>
	<path d="M210.874,64.944c0,0.936-0.143,2.695-2.309,2.695c-1.078,0-2.094-0.297-2.271-1.826h1.516
		c0.035,0.252,0.115,0.406,0.258,0.494c0.133,0.088,0.32,0.121,0.553,0.121c0.721,0,0.793-0.627,0.793-1.33V64.56h-0.018
		c-0.277,0.527-0.74,0.836-1.23,0.836c-1.398,0-2.031-1.232-2.031-2.84c0-1.518,0.721-2.793,2.031-2.793
		c0.553,0,0.971,0.297,1.238,0.879h0.018v-0.715h1.453V64.944z M208.53,61.192c-0.668,0-0.881,0.727-0.881,1.43
		c0,0.672,0.248,1.342,0.873,1.342c0.641,0,0.918-0.615,0.918-1.33C209.44,61.907,209.208,61.192,208.53,61.192z"/>
</g>
<polygon fill="#FFFFFF" stroke="#000000" stroke-width="1.54" stroke-miterlimit="10" points="53.626,34.521 26.842,34.521 
	26.842,11.227 37.574,11.227 53.626,18.299 "/>
<polyline fill="none" stroke="#000000" stroke-width="1.54" stroke-miterlimit="10" points="36.912,11.227 49.685,23.381 
	53.626,18.608 "/>
<polygon fill="#CFB7B7" points="36.628,12.012 48.138,28.065 52.865,22.119 52.865,20.723 49.745,24.506 "/>
<rect x="22.807" y="29.894" fill="#1866B0" width="34.855" height="36.828"/>
</svg>
