<?xml version="1.0" encoding="UTF-8"?>
<svg width="23px" height="37px" viewBox="0 0 23 37" version="1.1" xmlns="http://www.w3.org/2000/svg" xmlns:xlink="http://www.w3.org/1999/xlink">
    <!-- Generator: Sketch 47.1 (45422) - http://www.bohemiancoding.com/sketch -->
    <title>Group Copy 2</title>
    <desc>Created with Sketch.</desc>
    <defs></defs>
    <g id="Coming-soon" stroke="none" stroke-width="1" fill="none" fill-rule="evenodd">
        <g id="iPad-Pro" transform="translate(-50.000000, -1958.000000)">
            <g id="Group-Copy-2" transform="translate(50.000000, 1958.000000)">
                <polygon id="Path-2" fill="#D8D8D8" points="9.89111328 0.950927734 17.1918945 11.3005371 20.1494141 5.76025391 17.762207 7.68774414"></polygon>
                <path d="M19.5,6.3890873 L17.7071068,8.18198052 L17.6942904,8.16916409 L17.3781731,8.48528137 L9.89289169,1 L4,1 L4,15 L3,15 L3,0 L3.5,0 L10.5,0 L10.5,0.0360836972 L20.2873468,4.59999847 L20.5,4.59999847 L20.5,13.5999985 L19.5,13.5999985 L19.5,6.3890873 Z M19.25356,5.2213137 L12.273619,1.96651373 L17.3909895,7.08388424 L19.25356,5.2213137 Z" id="Combined-Shape" fill="#000000"></path>
                <polygon id="Fill-44" fill="#22629F" points="0 37 23 37 23 13 0 13"></polygon>
            </g>
        </g>
    </g>
</svg>