<?xml version="1.0" encoding="UTF-8"?>
<svg width="155px" height="37px" viewBox="0 0 155 37" version="1.1" xmlns="http://www.w3.org/2000/svg" xmlns:xlink="http://www.w3.org/1999/xlink">
    <!-- Generator: Sketch 47.1 (45422) - http://www.bohemiancoding.com/sketch -->
    <title>Group 2</title>
    <desc>Created with Sketch.</desc>
    <defs></defs>
    <g id="Coming-soon" stroke="none" stroke-width="1" fill="none" fill-rule="evenodd">
        <g id="iPad-Pro" transform="translate(-50.000000, -33.000000)">
            <g id="Group-2" transform="translate(50.000000, 33.000000)">
                <path d="M33,13.7576482 L34.5182725,13.7576482 L34.5182725,16.2898727 L34.5706267,16.2898727 C34.9545596,15.3596631 35.5784412,14.6404841 36.4422902,14.1323141 C37.3061393,13.6241441 38.2877711,13.3700629 39.3872153,13.3700629 C40.4168536,13.3700629 41.3112293,13.5595472 42.0703693,13.9385214 C42.8295094,14.3174957 43.4621166,14.8299646 43.96821,15.4759434 C44.4743033,16.1219223 44.8495048,16.8712465 45.0938258,17.7239386 C45.3381467,18.5766307 45.4603053,19.4766811 45.4603053,20.4241167 C45.4603053,21.3715524 45.3381467,22.2716028 45.0938258,23.1242949 C44.8495048,23.976987 44.4743033,24.7263112 43.96821,25.37229 C43.4621166,26.0182689 42.8295094,26.5264313 42.0703693,26.8967925 C41.3112293,27.2671537 40.4168536,27.4523316 39.3872153,27.4523316 C38.8985735,27.4523316 38.4099389,27.3920411 37.9212971,27.2714584 C37.4326552,27.1508757 36.9789231,26.9700043 36.5600872,26.7288389 C36.1412514,26.4876734 35.7704126,26.1862211 35.44756,25.824473 C35.1247073,25.4627248 34.8760272,25.0406916 34.7015123,24.5583608 L34.6491581,24.5583608 L34.6491581,32 L33,32 L33,13.7576482 Z M43.8111473,20.4241167 C43.8111473,21.1131608 43.7282539,21.7978882 43.5624647,22.4783192 C43.3966755,23.1587503 43.134907,23.7659613 42.7771514,24.2999705 C42.4193957,24.8339797 41.9613008,25.2689323 41.402853,25.6048413 C40.8444051,25.9407503 40.1725326,26.1087023 39.3872153,26.1087023 C38.5146406,26.1087023 37.777326,25.9407503 37.1752494,25.6048413 C36.5731728,25.2689323 36.0845382,24.8339797 35.7093311,24.2999705 C35.334124,23.7659613 35.0636298,23.1587503 34.8978406,22.4783192 C34.7320514,21.7978882 34.6491581,21.1131608 34.6491581,20.4241167 C34.6491581,19.6661682 34.7233258,18.9426827 34.8716635,18.2536386 C35.0200012,17.5645945 35.2774069,16.9616899 35.6438883,16.4449069 C36.0103697,15.9281238 36.4990043,15.5147035 37.1098066,15.2046336 C37.7206089,14.8945638 38.4797376,14.7395312 39.3872153,14.7395312 C40.1725326,14.7395312 40.8444051,14.9074832 41.402853,15.2433922 C41.9613008,15.5793012 42.4193957,16.0142538 42.7771514,16.548263 C43.134907,17.0822721 43.3966755,17.6894832 43.5624647,18.3699142 C43.7282539,19.0503453 43.8111473,19.7350726 43.8111473,20.4241167 Z M46.3880042,13.7576482 L47.9062767,13.7576482 L47.9062767,16.8841703 L47.9586309,16.8841703 C48.3774668,15.7989258 49.0275253,14.9634723 49.9088258,14.3777848 C50.7901263,13.7920973 51.8415631,13.5250968 53.0631678,13.5767751 L53.0631678,15.2046336 C52.3127535,15.1701814 51.6321554,15.26923 51.0213531,15.5017824 C50.4105507,15.7343348 49.8826509,16.0659323 49.4376378,16.4965849 C48.9926247,16.9272375 48.6479628,17.4397064 48.4036419,18.0340069 C48.1593209,18.6283075 48.0371623,19.2785831 48.0371623,19.9848533 L48.0371623,27.0905852 L46.3880042,27.0905852 L46.3880042,13.7576482 Z M53.8865558,8.64152126 L55.5357138,8.64152126 L55.5357138,11.2512628 L53.8865558,11.2512628 L53.8865558,8.64152126 Z M53.8865558,13.7576482 L55.5357138,13.7576482 L55.5357138,27.0905852 L53.8865558,27.0905852 L53.8865558,13.7576482 Z M57.5703888,13.7576482 L59.2195469,13.7576482 L59.2195469,16.0573215 L59.2719011,16.0573215 C59.586028,15.2476946 60.1444675,14.597419 60.9472362,14.1064751 C61.750005,13.6155311 62.6312923,13.3700629 63.5911246,13.3700629 C64.5335053,13.3700629 65.3231736,13.4906438 65.9601532,13.7318092 C66.5971328,13.9729747 67.1075814,14.3131851 67.4915143,14.7524507 C67.8754472,15.1917163 68.1459413,15.730024 68.3030047,16.3673898 C68.4600682,17.0047556 68.5385988,17.7196281 68.5385988,18.5120289 L68.5385988,27.0905852 L66.8894407,27.0905852 L66.8894407,18.7704191 C66.8894407,18.2019577 66.837087,17.672263 66.732378,17.1813191 C66.627669,16.6903751 66.4444311,16.2640355 66.1826587,15.9022873 C65.9208862,15.5405392 65.5674988,15.2563127 65.1224856,15.0495995 C64.6774725,14.8428863 64.1233958,14.7395312 63.460239,14.7395312 C62.7970822,14.7395312 62.2081031,14.8558056 61.6932839,15.088358 C61.1784648,15.3209104 60.742184,15.6395885 60.3844283,16.044402 C60.0266727,16.4492154 59.7474529,16.931539 59.5467608,17.4913874 C59.3460686,18.0512357 59.2369983,18.6584467 59.2195469,19.3130386 L59.2195469,27.0905852 L57.5703888,27.0905852 L57.5703888,13.7576482 Z M72.9795835,13.7576482 L75.7281802,13.7576482 L75.7281802,15.1271166 L72.9795835,15.1271166 L72.9795835,24.1190973 C72.9795835,24.6531065 73.0537512,25.0708332 73.2020889,25.37229 C73.3504266,25.6737468 73.7212653,25.8416988 74.3146162,25.876151 C74.7858066,25.876151 75.2569899,25.8503123 75.7281802,25.798634 L75.7281802,27.1681023 C75.4838593,27.1681023 75.239542,27.1767152 74.9952211,27.1939413 C74.7509002,27.2111674 74.5065829,27.2197803 74.262262,27.2197803 C73.1628178,27.2197803 72.3949635,27.0087638 71.9586761,26.5867242 C71.5223887,26.1646847 71.3129739,25.3852152 71.3304254,24.2482925 L71.3304254,15.1271166 L68.9744853,15.1271166 L68.9744853,13.7576482 L71.3304254,13.7576482 L71.3304254,9.75259934 L72.9795835,9.75259934 L72.9795835,13.7576482 Z M86.6383892,18.1335179 C86.3855726,16.5470841 85.4375246,15.7538792 83.7942167,15.7538792 C83.1802335,15.7538792 82.6655789,15.8920216 82.2502373,16.1683106 C81.8348958,16.4445997 81.4963072,16.8010963 81.2344614,17.2378112 C80.9726156,17.6745261 80.7875206,18.1557966 80.6791706,18.681637 C80.5708206,19.2074774 80.5166464,19.7288537 80.5166464,20.2457816 C80.5166464,20.7448843 80.5708206,21.252892 80.6791706,21.7698199 C80.7875206,22.2867477 80.9635866,22.7546496 81.2073741,23.1735394 C81.4511615,23.5924292 81.780721,23.9355572 82.1960626,24.2029337 C82.6114042,24.4703102 83.1170298,24.6039964 83.7129546,24.6039964 C84.6339294,24.6039964 85.3427081,24.3499925 85.8393122,23.8419772 C86.3359162,23.3339619 86.6474177,22.6521621 86.773826,21.7965574 L90.484794,21.7965574 C90.2319774,23.6325425 89.5096551,25.0317918 88.3178054,25.9943471 C87.1259557,26.9569025 85.6000498,27.4381729 83.740042,27.4381729 C82.6926589,27.4381729 81.7310673,27.2643808 80.8552384,26.9167914 C79.9794095,26.569202 79.2345146,26.0834753 78.6205314,25.4595968 C78.0065483,24.8357184 77.5280097,24.0915317 77.1849015,23.2270144 C76.8417932,22.3624971 76.6702417,21.4133249 76.6702417,20.3794691 C76.6702417,19.3099632 76.8282497,18.3162289 77.1442704,17.3982363 C77.4602912,16.4802437 77.9252862,15.6870387 78.5392694,15.0185975 C79.1532525,14.3501563 79.9026619,13.82878 80.78752,13.4544529 C81.6723781,13.0801258 82.6836293,12.8929651 83.821304,12.8929651 C84.6519872,12.8929651 85.4510562,12.9999141 86.2185352,13.2138153 C86.9860141,13.4277165 87.6722203,13.7530196 88.2771743,14.1897346 C88.8821283,14.6264495 89.3742104,15.1701068 89.7534353,15.8207229 C90.1326602,16.471339 90.3493569,17.242263 90.4035319,18.1335179 L86.6383892,18.1335179 Z M91.5340399,8 L95.3804446,8 L95.3804446,27.0905852 L91.5340399,27.0905852 L91.5340399,8 Z M110.790037,27.0905852 L107.133244,27.0905852 L107.133244,25.1654842 L107.051982,25.1654842 C106.564407,25.9676136 105.932375,26.5469206 105.155867,26.9034226 C104.379359,27.2599246 103.584804,27.4381729 102.77218,27.4381729 C101.742855,27.4381729 100.898641,27.3044867 100.239512,27.0371102 C99.5803828,26.7697337 99.0612136,26.390956 98.6819887,25.9007658 C98.3027638,25.4105756 98.0364075,24.8134438 97.8829117,24.1093524 C97.7294159,23.405261 97.6526692,22.6254246 97.6526692,21.7698199 L97.6526692,13.2672903 L101.499074,13.2672903 L101.499074,21.0746445 C101.499074,22.2154508 101.679654,23.0665865 102.040821,23.6280771 C102.401988,24.1895677 103.043049,24.4703088 103.964023,24.4703088 C105.011406,24.4703088 105.769845,24.1628305 106.239361,23.5478646 C106.708878,22.9328987 106.943633,21.9213395 106.943633,20.5131567 L106.943633,13.2672903 L110.790037,13.2672903 L110.790037,27.0905852 Z M113.220116,8 L117.066521,8 L117.066521,14.9517537 L117.120695,14.9517537 C117.590212,14.2387498 118.226758,13.7173735 119.030354,13.3876091 C119.83395,13.0578448 120.669135,12.8929651 121.535935,12.8929651 C122.240209,12.8929651 122.935445,13.0355638 123.621661,13.3207653 C124.307878,13.6059669 124.926366,14.0426753 125.477145,14.6309036 C126.027924,15.2191318 126.474861,15.9722309 126.817969,16.8902235 C127.161078,17.8082161 127.332629,18.899987 127.332629,20.165569 C127.332629,21.431151 127.161078,22.5229219 126.817969,23.4409145 C126.474861,24.3589071 126.027924,25.1120062 125.477145,25.7002345 C124.926366,26.2884627 124.307878,26.7251711 123.621661,27.0103727 C122.935445,27.2955743 122.240209,27.4381729 121.535935,27.4381729 C120.50661,27.4381729 119.585649,27.2777494 118.773024,26.9568976 C117.960399,26.6360459 117.346425,26.0923885 116.931084,25.3259093 L116.876909,25.3259093 L116.876909,27.0905852 L113.220116,27.0905852 L113.220116,8 Z M123.486224,20.1923065 C123.486224,19.6040783 123.423021,19.0425961 123.296613,18.5078431 C123.170205,17.9730902 122.971566,17.5007321 122.700691,17.0907549 C122.429816,16.6807776 122.091228,16.3554744 121.684915,16.1148356 C121.278603,15.8741968 120.786521,15.7538792 120.208654,15.7538792 C119.648846,15.7538792 119.161278,15.8741968 118.745937,16.1148356 C118.330595,16.3554744 117.987492,16.6807776 117.716617,17.0907549 C117.445742,17.5007321 117.247104,17.9730902 117.120695,18.5078431 C116.994287,19.0425961 116.931084,19.6040783 116.931084,20.1923065 C116.931084,20.7627097 116.994287,21.3152795 117.120695,21.8500324 C117.247104,22.3847854 117.445742,22.8571434 117.716617,23.2671207 C117.987492,23.6770979 118.330595,24.0024011 118.745937,24.2430399 C119.161278,24.4836788 119.648846,24.6039964 120.208654,24.6039964 C120.786521,24.6039964 121.278603,24.4836788 121.684915,24.2430399 C122.091228,24.0024011 122.429816,23.6770979 122.700691,23.2671207 C122.971566,22.8571434 123.170205,22.3847854 123.296613,21.8500324 C123.423021,21.3152795 123.486224,20.7627097 123.486224,20.1923065 Z M130.460546,21.3284826 C130.425643,22.0519789 130.508536,22.706561 130.709229,23.2922485 C130.909921,23.877936 131.206592,24.3774855 131.59925,24.790912 C131.991909,25.2043385 132.480544,25.527323 133.065169,25.7598754 C133.649794,25.9924278 134.308578,26.1087023 135.041541,26.1087023 C135.652343,26.1087023 136.236959,26.022573 136.795407,25.850312 C137.353855,25.678051 137.851215,25.4196633 138.287503,25.0751413 C138.72379,24.7306192 139.072815,24.308586 139.334587,23.809029 C139.596359,23.309472 139.727244,22.7410192 139.727244,22.1036534 C139.727244,21.4490615 139.613811,20.884915 139.386941,20.4111972 C139.160072,19.9374794 138.84595,19.541285 138.444565,19.2226021 C138.043181,18.9039192 137.57636,18.6670638 137.04409,18.5120289 C136.511819,18.3569939 135.940291,18.2794776 135.329489,18.2794776 L133.942102,18.2794776 L133.942102,16.9100093 L135.329489,16.9100093 C135.748325,16.9100093 136.180243,16.8454124 136.625256,16.7162166 C137.070269,16.5870208 137.471647,16.3889236 137.829403,16.121919 C138.187159,15.8549144 138.479467,15.514704 138.706336,15.1012775 C138.933206,14.6878511 139.046639,14.1969145 139.046639,13.6284531 C139.046639,13.0255395 138.941931,12.5130706 138.732513,12.0910311 C138.523096,11.6689916 138.23515,11.3158618 137.868669,11.0316311 C137.502187,10.7474004 137.078995,10.5406903 136.599079,10.4114945 C136.119163,10.2822987 135.599988,10.2177018 135.041541,10.2177018 C134.360932,10.2177018 133.758865,10.3296698 133.23532,10.5536091 C132.711775,10.7775485 132.271131,11.0919201 131.913376,11.4967335 C131.55562,11.901547 131.289489,12.3838706 131.114974,12.9437189 C130.940459,13.5035673 130.861928,14.1193912 130.87938,14.7912092 L129.230222,14.7912092 C129.230222,13.9299041 129.365469,13.1375153 129.635967,12.4140189 C129.906465,11.6905226 130.290392,11.0660857 130.78776,10.5406896 C131.285128,10.0152935 131.891558,9.6018732 132.607069,9.3004164 C133.322581,8.9989596 134.125337,8.84823346 135.015364,8.84823346 C135.730875,8.84823346 136.428924,8.93866914 137.109532,9.11954323 C137.790141,9.30041731 138.396571,9.57603082 138.928842,9.94639203 C139.461112,10.3167532 139.888668,10.790464 140.21152,11.3675384 C140.534373,11.9446129 140.695797,12.6379531 140.695797,13.4475799 C140.695797,14.4294678 140.429666,15.2821471 139.897395,16.0056434 C139.365124,16.7291398 138.601633,17.2114634 137.606898,17.4526288 L137.606898,17.5043069 C138.811051,17.693794 139.740329,18.189037 140.39476,18.9900508 C141.049191,19.7910646 141.376402,20.7858571 141.376402,21.9744582 C141.376402,22.8702156 141.206252,23.658298 140.865948,24.338729 C140.525644,25.0191601 140.067549,25.5919194 139.49165,26.0570242 C138.91575,26.522129 138.243878,26.8709523 137.476012,27.1035047 C136.708146,27.3360571 135.90539,27.4523316 135.067718,27.4523316 C134.125337,27.4523316 133.257138,27.3145248 132.463095,27.0389072 C131.669052,26.7632895 130.988454,26.3670951 130.42128,25.850312 C129.854107,25.3335289 129.426552,24.6961727 129.138602,23.9382242 C128.850652,23.1802756 128.741582,22.3103705 128.811388,21.3284826 L130.460546,21.3284826 Z M148.612785,8.84823346 C149.95655,8.84823346 151.042889,9.13676636 151.871835,9.7138408 C152.700781,10.2909153 153.346477,11.0273201 153.808941,11.9230775 C154.271406,12.8188348 154.585528,13.8179338 154.751317,14.9204044 C154.917107,16.022875 155,17.0994902 155,18.1502825 C155,19.2183009 154.917107,20.3035291 154.751317,21.4059997 C154.585528,22.5084703 154.271406,23.5075693 153.808941,24.4033266 C153.346477,25.299084 152.700781,26.0311823 151.871835,26.5996437 C151.042889,27.1681051 149.95655,27.4523316 148.612785,27.4523316 C147.286471,27.4523316 146.204495,27.1681051 145.366823,26.5996437 C144.529151,26.0311823 143.879093,25.299084 143.416628,24.4033266 C142.954163,23.5075693 142.640041,22.5084703 142.474252,21.4059997 C142.308463,20.3035291 142.225569,19.2269138 142.225569,18.1761215 C142.225569,17.1081032 142.308463,16.022875 142.474252,14.9204044 C142.640041,13.8179338 142.954163,12.8188348 143.416628,11.9230775 C143.879093,11.0273201 144.529151,10.2909153 145.366823,9.7138408 C146.204495,9.13676636 147.286471,8.84823346 148.612785,8.84823346 Z M148.612785,10.2177018 C147.565695,10.2177018 146.728036,10.4847024 146.099782,11.0187116 C145.471528,11.5527208 144.995982,12.2159158 144.673129,13.0083165 C144.350277,13.8007172 144.136499,14.6620095 144.03179,15.592219 C143.927081,16.5224286 143.874727,17.3751079 143.874727,18.1502825 C143.874727,18.9426833 143.927081,19.799669 144.03179,20.7212655 C144.136499,21.642862 144.350277,22.5041543 144.673129,23.305168 C144.995982,24.1061818 145.471528,24.7736833 146.099782,25.3076925 C146.728036,25.8417017 147.565695,26.1087023 148.612785,26.1087023 C149.659874,26.1087023 150.497534,25.8417017 151.125787,25.3076925 C151.754041,24.7736833 152.229587,24.1061818 152.55244,23.305168 C152.875293,22.5041543 153.08907,21.642862 153.193779,20.7212655 C153.298488,19.799669 153.350842,18.9426833 153.350842,18.1502825 C153.350842,17.3751079 153.298488,16.5224286 153.193779,15.592219 C153.08907,14.6620095 152.875293,13.8007172 152.55244,13.0083165 C152.229587,12.2159158 151.754041,11.5527208 151.125787,11.0187116 C150.497534,10.4847024 149.659874,10.2177018 148.612785,10.2177018 Z" id="Combined-Shape" fill="#22629F"></path>
                <g id="Group">
                    <polygon id="Path-2" fill="#D8D8D8" points="9.89111328 0.950927734 17.1918945 11.3005371 20.1494141 5.76025391 17.762207 7.68774414"></polygon>
                    <path d="M19.5,6.3890873 L17.7071068,8.18198052 L17.6942904,8.16916409 L17.3781731,8.48528137 L9.89289169,1 L4,1 L4,15 L3,15 L3,0 L3.5,0 L10.5,0 L10.5,0.0360836972 L20.2873468,4.59999847 L20.5,4.59999847 L20.5,13.5999985 L19.5,13.5999985 L19.5,6.3890873 Z M19.25356,5.2213137 L12.273619,1.96651373 L17.3909895,7.08388424 L19.25356,5.2213137 Z" id="Combined-Shape" fill="#000000"></path>
                    <polygon id="Fill-44" fill="#22629F" points="0 37 23 37 23 13 0 13"></polygon>
                </g>
            </g>
        </g>
    </g>
</svg>