<?xml version="1.0" encoding="UTF-8"?>
<svg width="129px" height="30px" viewBox="0 0 129 30" version="1.1" xmlns="http://www.w3.org/2000/svg" xmlns:xlink="http://www.w3.org/1999/xlink">
    <!-- Generator: Sketch 43 (38999) - http://www.bohemiancoding.com/sketch -->
    <title>Group 17</title>
    <desc>Created with Sketch.</desc>
    <defs></defs>
    <g id="First-website" stroke="none" stroke-width="1" fill="none" fill-rule="evenodd">
        <g id="Desktop" transform="translate(-54.000000, -15.000000)">
            <g id="Group-17" transform="translate(54.000000, 15.000000)">
                <g id="Group-4">
                    <g id="Group-Copy-6">
                        <path d="M16.3037023,0.668631424 L16.3037023,9.36083993 L14.950698,9.36083993 L14.950698,1.33726285 L5.47966758,1.33726285 L5.47966758,9.36083993 L4.12666324,9.36083993 L4.12666324,0 L4.80316541,0 L16.3037023,0 L16.3037023,0.668631424 Z M6.7650217,6.6194511 L13.5300434,6.6194511 L13.5300434,7.28808252 L6.7650217,7.28808252 L6.7650217,6.6194511 Z M6.7650217,4.81414625 L13.5300434,4.81414625 L13.5300434,5.48277768 L6.7650217,5.48277768 L6.7650217,4.81414625 Z M6.7650217,3.00884141 L13.5300434,3.00884141 L13.5300434,3.67747283 L6.7650217,3.67747283 L6.7650217,3.00884141 Z" id="Combined-Shape" fill="#000000"></path>
                        <rect id="Rectangle-4-Copy-3" fill="#F6A623" x="0.067650217" y="8.69220851" width="20.2950651" height="16.7157856"></rect>
                        <path d="M11.5435052,17.1646226 L14.1303752,19.7514927 L15.7539515,18.1279164 L10.4049956,12.7789606 L10.3734165,12.8105396 L10.3418375,12.7789606 L4.99288158,18.1279164 L6.61645779,19.7514927 L9.2474217,17.1205288 L9.2474217,29.8086787 L11.5435052,29.8086787 L11.5435052,17.1646226 Z" id="Combined-Shape" fill="#000000"></path>
                    </g>
                </g>
                <path d="M31.92,23 L31.92,6.2 L38.736,6.2 C40.4480086,6.2 41.8399946,6.68399516 42.912,7.652 C43.9840054,8.62000484 44.52,9.91999184 44.52,11.552 C44.52,13.1840082 44.0040052,14.4799952 42.972,15.44 C41.9399948,16.4000048 40.528009,16.88 38.736,16.88 L35.16,16.88 L35.16,23 L31.92,23 Z M35.16,13.88 L38.688,13.88 C39.4080036,13.88 39.9999977,13.6680021 40.464,13.244 C40.9280023,12.8199979 41.16,12.2560035 41.16,11.552 C41.16,10.7359959 40.9240024,10.1400019 40.452,9.764 C39.9799976,9.38799812 39.3920035,9.2 38.688,9.2 L35.16,9.2 L35.16,13.88 Z M45.693913,23 L45.693913,10.28 L48.645913,10.28 L48.645913,11.624 L48.693913,11.624 C48.9339142,11.1439976 49.2899106,10.7600014 49.761913,10.472 C50.2339154,10.1839986 50.7499102,10.04 51.309913,10.04 C51.709915,10.04 52.0939112,10.1199992 52.461913,10.28 L51.981913,13.304 C51.6299112,13.1759994 51.3019145,13.112 50.997913,13.112 C49.5419057,13.112 48.813913,14.0799903 48.813913,16.016 L48.813913,23 L45.693913,23 Z M53.875826,23 L53.875826,10.28 L56.995826,10.28 L56.995826,23 L53.875826,23 Z M53.875826,8.432 L53.875826,5.48 L56.995826,5.48 L56.995826,8.432 L53.875826,8.432 Z M59.729739,23 L59.729739,10.28 L62.729739,10.28 L62.729739,11.504 L62.777739,11.504 C63.1297407,11.0559978 63.6097359,10.6800015 64.217739,10.376 C64.825742,10.0719985 65.4657356,9.92 66.137739,9.92 C67.545746,9.92 68.649735,10.3399958 69.449739,11.18 C70.249743,12.0200042 70.649739,13.1839926 70.649739,14.672 L70.649739,23 L67.529739,23 L67.529739,15.44 C67.529739,14.5599956 67.3617407,13.9000022 67.025739,13.46 C66.6897373,13.0199978 66.1137431,12.8 65.297739,12.8 C64.5297351,12.8 63.9297411,13.0199978 63.497739,13.46 C63.0657368,13.9000022 62.849739,14.4879963 62.849739,15.224 L62.849739,23 L59.729739,23 Z M73.911652,18.464 L73.911652,12.92 L71.943652,12.92 L71.943652,10.28 L73.983652,10.28 L73.983652,7.16 L76.935652,7.16 L76.935652,10.28 L80.151652,10.28 L80.151652,12.92 L76.983652,12.92 L76.983652,18.176 C76.983652,18.8480034 77.0956508,19.3199986 77.319652,19.592 C77.5436531,19.8640014 77.9996485,20 78.687652,20 L79.719652,20 L79.719652,23 L78.399652,23 C76.6876434,23 75.5116552,22.6400036 74.871652,21.92 C74.2316488,21.1999964 73.911652,20.0480079 73.911652,18.464 Z" id="Print" fill="#F6A623"></path>
                <path d="M92.5172329,16.328 L95.8772329,17.072 C95.6052315,19.0240098 94.8932386,20.5599944 93.7412329,21.68 C92.5892271,22.8000056 91.0852421,23.36 89.2292329,23.36 C87.0692221,23.36 85.3132396,22.6120075 83.9612329,21.116 C82.6092261,19.6199925 81.9332329,17.3600151 81.9332329,14.336 C81.9332329,11.6799867 82.6492257,9.60000752 84.0812329,8.096 C85.51324,6.59199248 87.2212229,5.84 89.2052329,5.84 C90.9332415,5.84 92.4012268,6.3799946 93.6092329,7.46 C94.8172389,8.5400054 95.5172319,9.99199088 95.7092329,11.816 L92.4932329,12.32 C92.3492321,11.2959949 92.0132355,10.4600032 91.4852329,9.812 C90.9572302,9.16399676 90.2052377,8.84 89.2292329,8.84 C88.1252273,8.84 87.1892367,9.3199952 86.4212329,10.28 C85.653229,11.2400048 85.2692329,12.5919913 85.2692329,14.336 C85.2692329,16.3840102 85.6412291,17.8999951 86.3852329,18.884 C87.1292366,19.8680049 88.0772271,20.36 89.2292329,20.36 C91.1172423,20.36 92.2132313,19.0160134 92.5172329,16.328 Z M97.7439246,23 L97.7439246,5.48 L100.983925,5.48 L100.983925,23 L97.7439246,23 Z M103.570616,18.488 L103.570616,10.28 L106.690616,10.28 L106.690616,18.152 C106.690616,18.952004 106.842615,19.5199983 107.146616,19.856 C107.450618,20.1920017 107.938613,20.36 108.610616,20.36 C109.36262,20.36 109.970614,20.164002 110.434616,19.772 C110.898619,19.379998 111.130616,18.7600042 111.130616,17.912 L111.130616,10.28 L114.250616,10.28 L114.250616,23 L111.274616,23 L111.274616,21.776 L111.226616,21.776 C110.442613,22.8320053 109.338624,23.36 107.914616,23.36 C106.442609,23.36 105.35062,22.9200044 104.638616,22.04 C103.926613,21.1599956 103.570616,19.9760074 103.570616,18.488 Z M120.077308,15.464 L120.077308,17.792 C120.077308,18.5600038 120.321306,19.2119973 120.809308,19.748 C121.297311,20.2840027 121.965304,20.552 122.813308,20.552 C123.725313,20.552 124.433306,20.2200033 124.937308,19.556 C125.441311,18.8919967 125.693308,17.9200064 125.693308,16.64 C125.693308,15.3439935 125.441311,14.3680033 124.937308,13.712 C124.433306,13.0559967 123.725313,12.728 122.813308,12.728 C121.965304,12.728 121.297311,12.9919974 120.809308,13.52 C120.321306,14.0480026 120.077308,14.6959962 120.077308,15.464 Z M116.957308,23 L116.957308,5.48 L120.077308,5.48 L120.077308,11.504 L120.125308,11.504 L120.245308,11.324 C120.293308,11.2519996 120.417307,11.1280009 120.617308,10.952 C120.817309,10.7759991 121.033307,10.6160007 121.265308,10.472 C121.497309,10.3279993 121.801306,10.2000006 122.177308,10.088 C122.55331,9.97599944 122.949306,9.92 123.365308,9.92 C124.933316,9.92 126.233303,10.5399938 127.265308,11.78 C128.297313,13.0200062 128.813308,14.63999 128.813308,16.64 C128.813308,18.6880102 128.313313,20.3199939 127.313308,21.536 C126.313303,22.7520061 124.973317,23.36 123.293308,23.36 C122.605305,23.36 121.981311,23.2280013 121.421308,22.964 C120.861305,22.6999987 120.477309,22.4400013 120.269308,22.184 L119.933308,21.776 L119.885308,21.776 L119.885308,23 L116.957308,23 Z" id="Club" fill="#858585"></path>
            </g>
        </g>
    </g>
</svg>